<!-- Generator: Adobe Illustrator 23.0.4, SVG Export Plug-In  -->
<svg version="1.1" xmlns="http://www.w3.org/2000/svg" xmlns:xlink="http://www.w3.org/1999/xlink" x="0px" y="0px" width="90.7px"
	 height="90.7px" viewBox="0 0 90.7 90.7" style="enable-background:new 0 0 90.7 90.7;" xml:space="preserve">
<style type="text/css">
	.st0{fill:#FFFFFF;}
</style>
<defs>
</defs>
<g>
	<path class="st0" d="M45.4,0C20.3,0,0,20.3,0,45.4c0,25,20.3,45.4,45.4,45.4c25,0,45.4-20.3,45.4-45.4C90.7,20.3,70.4,0,45.4,0z
		 M45.4,85.5c-22.1,0-40.1-18-40.1-40.1c0-22.1,18-40.1,40.1-40.1c22.1,0,40.1,18,40.1,40.1C85.5,67.5,67.5,85.5,45.4,85.5z"/>
	<polygon class="st0" points="22,30.4 22,42.4 45.4,28.8 68.7,42.4 68.7,30.4 45.4,16.8 	"/>
	<polygon class="st0" points="22,51.9 22,63.9 45.4,50.4 68.7,63.9 68.7,51.9 45.4,38.4 	"/>
	<polygon class="st0" points="39.4,63.4 39.4,73 51.4,73 51.4,63.4 45.4,59.9 	"/>
</g>
</svg>
