<!-- Generator: Adobe Illustrator 23.0.6, SVG Export Plug-In  -->
<svg version="1.1" xmlns="http://www.w3.org/2000/svg" xmlns:xlink="http://www.w3.org/1999/xlink" x="0px" y="0px" width="26.3px"
	 height="30.7px" viewBox="0 0 26.3 30.7" style="enable-background:new 0 0 26.3 30.7;" xml:space="preserve">
<style type="text/css">
	.st0{fill:#FFFFFF;}
</style>
<defs>
</defs>
<path class="st0" d="M25.7,24.9l-6.9-10.2c-0.9-1.4-1.3-3-1.3-4.8c0,0,0-5,0-6.4s0.9-2.3,1-2.9c0.2-0.6,0-0.6-1-0.6H8.8
	C7.7,0,7.5,0,7.7,0.6c0.2,0.6,1,1.6,1,2.9s0,6.3,0,6.3c0,1.8-0.5,3.4-1.4,4.8L4,19.9l-3.4,5C0.2,25.5,0,26.3,0,27.1
	c0,1.9,1.1,3.6,4.3,3.6H22c3.2,0,4.3-1.7,4.3-3.6C26.3,26.3,26.1,25.5,25.7,24.9z M14.1,28.4h-1.8v-1.5l0.9-0.5l0.9,0.5V28.4z
	 M16.7,27l-3.5-2l-3.5,2v-1.8l3.5-2l3.5,2V27z M16.7,23.8l-3.5-2l-3.5,2V22l3.5-2l3.5,2V23.8z M16.7,17.5H9.6H8.1l1.2-1.8
	c1.1-1.7,1.7-3.8,1.7-6V2.2h4.4v7.6c0,2.1,0.5,4.2,1.6,6l1.2,1.8H16.7z"/>
</svg>
