<!-- Generator: Adobe Illustrator 23.0.6, SVG Export Plug-In  -->
<svg version="1.1" xmlns="http://www.w3.org/2000/svg" xmlns:xlink="http://www.w3.org/1999/xlink" x="0px" y="0px" width="24.3px"
	 height="34.5px" viewBox="0 0 24.3 34.5" style="enable-background:new 0 0 24.3 34.5;" xml:space="preserve">
<style type="text/css">
	.st0{fill:#FFFFFF;}
</style>
<defs>
</defs>
<g>
	<g>
		<g>
			<path class="st0" d="M13.1,34.5c-1.6,0-3.2-0.5-4.6-1.4c-0.7,0.7-1.7,1.2-2.7,1.3c-1.1,0.2-2.2,0-3.2-0.5
				c-2.5-1.3-2.5-3.5-2.6-5.7l0-0.5L0.5,28c1.4,1.2,2.3,1.8,3.8,0.7c0.5-0.3,1-1,1-1.6l0,0l0-5.6c0-1.1-0.5-2.1-1.6-3.1l-1.2-1.1
				l1.2-1.1c1.1-1,1.6-2,1.6-3.1l0-5.6c0-0.6-0.5-1.3-1-1.6C2.8,4.8,1.8,5.5,0.5,6.3L0,6.7l0-0.5C0.2,4,0.3,1.9,2.7,0.6
				c1-0.5,2.1-0.7,3.2-0.5c1,0.2,1.9,0.6,2.7,1.3c1.9-1.3,4.2-1.7,6.5-1.2c1.2,0.3,2.3,0.8,3.3,1.5c1,0.8,1.8,1.8,2.2,2.8
				c0.1,0.2,0.2,0.4,0.3,0.7c0.3,0.7,0.5,1.3,0.8,2C21.8,7.6,22,8,22.3,8.4c0.2,0.3,0.6,0.6,0.9,0.9l1.1,0.9l-0.9,1.1
				c-0.4,0.5-0.7,1.5-1,2.4c-0.1,0.2-0.1,0.5-0.2,0.6c-0.4,1.3-0.9,2.3-1.6,3c0.6,0.8,1.1,1.7,1.6,3c0.1,0.2,0.1,0.4,0.2,0.6
				c0.3,0.8,0.6,1.9,1,2.4l0.9,1.1l-1.1,0.9c-0.3,0.3-0.6,0.5-0.9,0.9c-0.3,0.4-0.5,0.8-0.6,1.2c-0.3,0.6-0.6,1.3-0.8,2
				c-0.1,0.2-0.2,0.4-0.3,0.7c-0.4,1.1-1.2,2-2.2,2.8c-1,0.7-2.1,1.2-3.3,1.5C14.4,34.4,13.8,34.5,13.1,34.5z M8.5,32.5l0.2,0.1
				c1.8,1.3,4.1,1.8,6.3,1.2c2.4-0.6,4.4-2.2,5.2-4.1c0.1-0.2,0.2-0.4,0.3-0.7c0.3-0.7,0.5-1.3,0.8-2c0.2-0.4,0.4-0.9,0.7-1.3
				c0.3-0.4,0.6-0.7,0.9-0.9l0.7-0.6L23,23.6c-0.5-0.6-0.8-1.7-1.1-2.5c-0.1-0.2-0.1-0.5-0.2-0.6c-0.5-1.3-1-2.3-1.6-3l-0.1-0.2
				l0.1-0.2c0.7-0.7,1.2-1.7,1.6-3c0.1-0.2,0.1-0.4,0.2-0.6c0.3-0.9,0.6-2,1.1-2.5l0.6-0.7l-0.7-0.6c-0.3-0.3-0.7-0.6-0.9-0.9
				c-0.3-0.4-0.5-0.9-0.7-1.3c-0.3-0.7-0.6-1.3-0.8-2c-0.1-0.2-0.2-0.4-0.3-0.7c-0.8-1.9-2.8-3.5-5.2-4.1c-2.2-0.5-4.5-0.1-6.3,1.2
				L8.5,2L8.4,1.9C7.7,1.2,6.8,0.7,5.8,0.5c-1-0.2-2,0-2.9,0.5c-2,1.1-2.3,2.8-2.4,4.7c1.3-0.8,2.4-1.4,4-0.3c0.6,0.4,1.2,1.2,1.2,2
				l0,0l0,5.6c0,1.2-0.6,2.4-1.8,3.4l-0.8,0.7L3.9,18c1.2,1,1.8,2.2,1.8,3.4l0,5.6c0,0.8-0.6,1.6-1.2,2c-0.7,0.5-1.2,0.7-1.8,0.7
				c-0.8,0-1.5-0.5-2.2-1c0.1,2,0.3,3.7,2.3,4.8C3.8,34,4.8,34.1,5.8,34c1-0.2,1.8-0.6,2.5-1.4L8.5,32.5z M13.1,28.8
				c-1,0-2-0.4-2.7-1.2l-0.1-0.1v-6.8l0.1-0.1c0.7-0.8,1.7-1.3,2.9-1.2c1.1,0.1,2.2,0.6,2.7,1.5c0.5,0.8,0.4,1.7-0.1,2.8l-0.3,0.5
				l0.3,0.5c0.6,1,0.6,2,0.1,2.8c-0.5,0.8-1.6,1.4-2.7,1.5C13.3,28.8,13.2,28.8,13.1,28.8z M10.9,27.4c0.6,0.7,1.5,1,2.4,1
				c1-0.1,1.9-0.5,2.3-1.2c0.4-0.6,0.3-1.4-0.2-2.3l-0.4-0.7l0.4-0.7c0.5-0.9,0.5-1.6,0.2-2.3c-0.4-0.7-1.3-1.2-2.3-1.2
				c-1-0.1-1.8,0.3-2.4,1V27.4z M13.1,15c-1,0-2-0.4-2.7-1.2l-0.1-0.1V6.9l0.1-0.1c0.7-0.8,1.7-1.3,2.9-1.2c1.1,0.1,2.2,0.6,2.7,1.5
				c0.5,0.8,0.4,1.7-0.1,2.8l-0.3,0.5l0.3,0.5c0.6,1,0.6,2,0.1,2.8c-0.5,0.8-1.6,1.4-2.7,1.5C13.3,15,13.2,15,13.1,15z M10.9,13.5
				c0.6,0.7,1.5,1,2.4,1c1-0.1,1.9-0.5,2.3-1.2c0.4-0.6,0.3-1.4-0.2-2.3l-0.4-0.7l0.4-0.7C16,8.7,16,7.9,15.7,7.3
				c-0.4-0.7-1.3-1.2-2.3-1.2c-1-0.1-1.8,0.3-2.4,1V13.5z"/>
		</g>
	</g>
	<g>
		<g>
			<path class="st0" d="M18.4,17.3c2.7-1.7,2.4-5.2,3.9-7c-1.5-1.3-1.6-1.7-3-5.2C18,1.9,12.2-0.4,8.3,3.4C6.5,0.2,2.1,1.2,1.5,4.3
				c2.6-1.1,5.1,1.1,5.1,3.2v5.6c0,1.6-0.8,3-2.1,4.2c1.3,1.2,2.1,2.6,2.1,4.2V27c0,2-2.5,4.3-5.1,3.2c0.5,3.2,5,4.1,6.8,0.9
				c3.9,3.9,9.6,1.6,10.9-1.7c1.4-3.5,1.5-3.9,3-5.2C20.8,22.5,21.1,18.9,18.4,17.3z M9.5,27.8v-7.5c2.9-4.1,9.9-1,7.3,3.7
				C19.4,28.9,12.3,31.9,9.5,27.8z M9.5,14V6.5c2.9-4.1,9.9-1,7.3,3.7C19.4,15,12.3,18.1,9.5,14z"/>
		</g>
	</g>
</g>
</svg>
