<!-- Generator: Adobe Illustrator 23.0.6, SVG Export Plug-In  -->
<svg version="1.1" xmlns="http://www.w3.org/2000/svg" xmlns:xlink="http://www.w3.org/1999/xlink" x="0px" y="0px" width="32.2px"
	 height="34.6px" viewBox="0 0 32.2 34.6" style="enable-background:new 0 0 32.2 34.6;" xml:space="preserve">
<style type="text/css">
	.st0{fill:#FFFFFF;}
</style>
<defs>
</defs>
<g>
	<path id="path228_1_" class="st0" d="M6.9,32v1.8c-0.4,0.2-2.1,1-4.1,0.4c-1.1-0.4-1.7-1.4-1.8-1.9c-0.1-0.5-0.8-4.5,2.9-4.8
		c0.9-0.1,2.6,0.1,3,0.5v1.8c-0.3-0.2-1.6-0.9-2.9-0.5c-1.4,0.3-1.5,2.9-0.3,3.4C4.9,33,6.8,32.3,6.9,32"/>
	<path id="path230_1_" class="st0" d="M7.9,34.3h1.9v-6.8H7.9V34.3z"/>
	<path id="path232_1_" class="st0" d="M10.4,27.5v1.6h1.8v5.2h1.9v-5.1h1.8v-1.7L10.4,27.5"/>
	<path id="path234_1_" class="st0" d="M22,27.8c-0.2-0.2-1.8-0.7-3.7-0.3c-1.7,0.3-2,2.3-2,2.4c-0.1,0.5-0.5,3.9,1.9,4.3
		c2.7,0.5,4.5-0.1,4.5-2.2v-1.7h-3.1v1.4h1.4c0,0.6-0.1,1.1-0.7,1.1c-0.6,0.1-2.3,0.3-2.3-1.6c0.1-1.6,0.2-2.4,2.5-2.2
		c0.8,0.1,1.5,0.3,1.5,0.3L22,27.8"/>
	<path id="path236_1_" class="st0" d="M26.9,27.4c-2.5,0-3.6,1.1-3.6,3.7c0,2.5,1.2,3.5,3.7,3.5c2.5,0,3.6-1.1,3.6-3.6
		C30.6,28.5,29.5,27.4,26.9,27.4z M26.9,29c1.2,0,1.9,0.6,1.9,1.9c0,1.3-0.7,1.9-1.9,1.9c-1.2,0-1.9-0.5-1.9-1.9
		C25,29.6,25.7,29,26.9,29z"/>
	<g>
		<polygon class="st0" points="32.2,25.6 32.2,25.6 32.2,25.6 		"/>
		<polygon class="st0" points="15.4,16.3 0,24.7 15.4,0 		"/>
		<polygon class="st0" points="15.9,17.2 31.3,25.6 0.5,25.6 		"/>
		<polygon class="st0" points="31.6,24.6 16.4,16.3 16.4,0 		"/>
	</g>
</g>
</svg>
