<!-- Generator: Adobe Illustrator 23.0.6, SVG Export Plug-In  -->
<svg version="1.1" xmlns="http://www.w3.org/2000/svg" xmlns:xlink="http://www.w3.org/1999/xlink" x="0px" y="0px" width="36.6px"
	 height="22.4px" viewBox="0 0 36.6 22.4" style="enable-background:new 0 0 36.6 22.4;" xml:space="preserve">
<style type="text/css">
	.st0{fill:#FFFFFF;}
</style>
<defs>
</defs>
<g id="state_outline_1_">
	<path class="st0" d="M2.6,2l0.5,0L4.5,2l0.5,0l0.9,0l0.2,0l0.6,0l2.4,0.1l1.5,0.1l1.1,0l0.7,0l1.7,0.1L16,2.5l0.3,0l0.3,0l2.4,0.1
		l2.5,0.1l0.9,0l0.1-0.2l0.1-0.1l0.1-0.1l0.1-0.1l0,0l0,0l0.1,0l0,0L23,2l0.1,0l0.1,0l0.1,0l0.1,0l0.1,0l0.1,0l-0.1-0.7l0.2-0.2
		L24,0.9l0.7,0.2l0.2-0.6l0.1-0.1L25,0.4l0,0l0.1,0l0.2,0l0.1,0l0.2,0l0.1,0l0.1,0l0,0l0.1-0.1L26,0.1l0.1,0l0.1,0l0.1,0l0.1,0
		l0.1,0l0.1,0l0.1,0l0.1,0.1l0.1,0.1l0.1,0.1l0,0l0,0l0.1,0l0.1-0.1l0.1,0l0,0l0,0.2l0,0.1l0,0.1l0,0.2l0,0.1h0l-0.1,0l-0.1,0l0,0
		l-0.1,0l-0.1,0l-0.1,0l-0.1,0l0,0l-0.1-0.1l-0.1,0l-0.1,0l0,0l0,0.1l0,0l0.1,0l0.2,0.1l0.1,0l0.1,0.1l0.1,0l0.1,0l0.1,0l0,0l0.1,0
		l0,0l0,0l0-0.2l0.1,0l0,0.1l0,0.1l0,0.1l0,0.1l0,0.1l0,0.1l0,0.2l0.1,0.2L27.5,2l0,0.1l0.1,0.1l0.1,0.1l0,0.1l0,0v0l0,0l0,0h0l0,0
		l0,0l0,0l-0.1-0.1l0,0l-0.1-0.1l0-0.1l0-0.1L27.3,2l-0.1,0l0,0h0l0,0l0,0.1l0,0.1l0,0.1l0,0l0,0.1v0l0,0l0,0l0,0l0,0l0,0l0,0l0,0
		l0,0l0,0l0,0l0,0l0,0h0.1l0.1,0l0.1,0.1l0,0l0,0l0,0l0,0l0,0l0,0l0.1,0l0.1,0l0.1,0l0,0l0.1,0l0,0l0.1,0l0.1,0l0.1,0l0,0.1l0,0l0,0
		L28.2,3l0,0l-0.1,0l0,0l0,0l0,0l-0.1,0l-0.1,0l-0.1,0l-0.1,0.1l0,0.1l0,0l0,0l0,0l0,0.1l0,0l0,0v0l0,0l0,0l0,0l0,0l0,0h0l0.1-0.1
		l0,0l0,0l0,0l0,0l0,0l0,0l0.1,0l0,0l0,0v0l0-0.1h0l0,0l0.1,0l0,0l0,0V3.1l0,0h0l0,0l0,0l0,0l0,0l0.1,0l0.1,0l0.1,0l0,0.1l0,0l0,0
		l-0.1,0l0,0l0,0l0,0l0,0l0.1,0l0,0h0l0,0h0l0,0l0,0l0,0l0-0.1l0-0.1l0,0l0,0l0,0l0,0l0,0h0l0,0l0-0.1l0-0.1l0,0l0.1-0.1l0-0.1
		l0.1-0.1L29,2.7l0,0l0,0l0.1-0.1l0,0l0,0l0,0l0,0l0,0l0,0.1v0.1l0,0l0,0l0,0l0.1,0l0.1,0l0,0l0,0l0,0l0,0l0,0v0l0,0v0l0,0.1l0,0
		l0,0h0l-0.1,0l0,0l0,0l0,0l0,0l-0.1,0l0,0l0,0l0,0.1l0,0.1l0,0l0,0.1l0,0l0,0l0,0L29,4l0,0l0,0.1l-0.1,0.1l-0.1,0l0,0l0,0l0,0l0,0
		l0,0l0,0l0,0v0l0,0l0,0l0,0l0,0l0,0l0,0l-0.1,0l-0.1,0l0,0l-0.1,0.1l0,0.2l0,0l0,0l0,0l0,0l0,0l-0.1,0l-0.1,0l0,0l-0.1,0l0,0l0,0
		l-0.1,0l-0.1,0l-0.1,0l0,0l-0.1,0.1l-0.1,0l0,0l-0.1-0.1l-0.1,0l-0.1,0l-0.2,0.1l-0.1,0l-0.2,0l-0.1,0.1l-0.1,0l-0.1,0l-0.1,0.1
		l-0.1,0l0-0.1l-0.1,0l-0.2,0l0,0l0,0.1l0.1,0l0.1,0l0.1,0l0,0l0,0l0,0l0.1-0.1l0,0l0,0.1L26.6,5l0,0l0,0.1l0,0.2l0.1,0l0,0l0-0.1
		l0-0.1l0-0.1l0.1,0l0.1,0l0,0.2l0,0.1h0l0.1-0.2l0.1,0l0,0.2l-0.1,0.1l-0.1,0l-0.1,0l0,0l-0.1,0.1l-0.1,0l-0.1,0l-0.1,0.2l0,0l0,0
		l0,0l-0.1,0l-0.1,0l-0.1,0l-0.1,0.1l0,0.1l0,0.1v0.1l0,0l0,0l0,0l0,0l0.1,0l0,0l0,0.1l0,0l-0.1,0l-0.1,0l-0.1,0l-0.1,0l0-0.2l0-0.1
		l0-0.1L26,6l0,0l0,0l-0.1,0.1l-0.1,0.1l-0.1,0.1l-0.1,0.1v0.1l0,0.1l0,0.1l0,0l0.1,0l0,0l0,0l0,0l0,0.1l0.1,0.2l0,0.1L26,7.4l0,0
		l-0.2-0.1l0,0l0,0v0l0-0.1l0,0h0l-0.1,0l-0.1,0l0,0l0,0l0-0.1l-0.1,0h-0.1l0,0.1l0,0.1l0,0.1l0,0.1l0,0h0l0,0l0,0.1l-0.1,0l0,0l0,0
		l0,0l0,0l0,0l-0.2-0.1L25,7.1l0,0l0,0.1l0,0l0,0.1l0.1,0l0.1-0.1l0,0l0.1,0.1l0,0l0,0.1l-0.1,0l-0.1,0l0,0h-0.1l-0.1,0v0l0,0l0.1,0
		L25,8L25,8l0,0.1l0.1,0l0-0.2l0,0l0,0l0.1,0l0.1,0L25.4,8l0.1,0v0l-0.1,0l0,0.1l0,0l-0.1,0l0,0.1l0,0l0.1,0.1l0.1,0.1l0,0.1
		l0.1,0.1l0.1,0l0.1,0l0.1-0.1l0.1-0.1l0.1,0l0,0.1v0l-0.1,0.1l0,0l0,0.1l0,0l0,0l0,0l0,0l0,0.1l0,0l0.1,0l0,0l0,0l0,0l0,0l0,0
		l0-0.1l0-0.1l0,0L26,8.7l0.1-0.1l0,0l-0.1,0.1l0,0.1l0,0.1l0,0l0,0l0,0l0,0l0-0.1l0,0l0-0.1l0-0.1l0.1-0.1l0.1,0l0,0l0,0.1l0,0
		l0.1,0l0,0l0,0l0-0.1l0,0l0,0l0,0l0,0l0,0l0,0l0,0l0-0.1l-0.1,0l-0.1-0.1l0,0l-0.1,0l0-0.1l0-0.1l0-0.1l0-0.1l-0.1,0l-0.1,0l-0.1,0
		l-0.1,0v0l0.1,0l0.2,0l0.1,0l0,0.1l0.1,0.1l0.1,0.2l0.1,0.1l0,0l0.1,0.1l0.2,0l0,0l0.2,0.1l0.1,0.1l0,0.2l0,0.1l0.1,0l0-0.1l0,0
		l0,0l0,0l0-0.1l0,0l0.1,0.1l0,0.2L28.1,9l0.2,0.2l0.1,0.1l0,0.1l0,0.1h0l0.1,0l0,0l0,0l0,0l0,0l0,0.1l0,0.1l0,0.2l0,0l-0.1,0
		l-0.1,0l-0.1,0.1l0,0l0.1,0l0.1,0l0,0l0,0.1l0,0.1l0.1,0l0-0.1l-0.1-0.1l0,0h0l0,0l0,0l0.1,0.1l0.1,0.2l0.1,0.2l0.3,0.3l0.1,0.1
		l0,0.1l0,0l0,0l0,0l0,0l0,0.1l0,0.1l0.1,0.1l0.2,0.2l0.1,0.2l0,0.1l0.1,0.1l0,0l0,0L29.5,12l-0.1,0l-0.1,0l0,0.1l-0.1,0l0,0l0,0
		l0,0l0,0l0,0l0,0l0.1-0.1l0,0l0-0.1l-0.1-0.1l-0.1-0.1l0-0.1l-0.1-0.1l0,0l0,0l0-0.1l-0.1,0l0,0l0,0l0,0l0,0l0,0l0.1,0l0,0l0,0
		l-0.1,0l0,0.1l0,0.1l0,0l0,0l0,0l0,0.1l0.1,0l0,0.1l0,0L28.9,12l0,0l0,0l0,0l0-0.1l0,0l-0.1,0.1L28.5,12l0,0.1l0.1,0l0.1,0.1l0,0.1
		l0.1,0.1l0.1,0.1l0.1,0.1l0,0.1l0.1,0.1l0.1,0.1l0.1,0l0,0l0,0l0-0.1l0-0.1l0-0.1l0-0.1l0,0l0,0l0,0.1l0,0.1l0,0.1l0.1,0.1l0,0.1
		l0,0.1l0,0l0,0h0.1l0.1,0l0.1-0.1l0.1,0l0,0l0.1,0l0.1,0l0.1,0.1l0.1,0.1l0.1,0.1l0.1,0h0.1l0,0.1l-0.1,0v0.1l0,0.1l0,0.1l0.1,0.1
		l0,0.1l0,0.2l0,0.2l0.1,0.1l0,0.1l0,0.1l-0.1,0.2l0,0.1l0,0.1l0.2,0.2l0.2,0.1l0.2,0.1l0.1,0.1l0.1,0.1l0.5,0.2l0.5,0.1l0.3,0
		l0.4,0l0.2,0l0.1,0l0.1,0.1l0,0l-0.1,0l-0.1,0l0,0l0,0l0,0l-0.1,0l-0.1,0l-0.1,0l-0.1,0l-0.1,0l-0.1,0l-0.1,0l0,0l0,0.1l0.1,0
		l0.1,0l0.2,0l0.1,0l0.1,0l0.1,0l0.1,0l0.1,0l0,0l0,0.1l0,0l0-0.1l0.1-0.1l0,0l0.1,0l0,0l0,0l0-0.1l0.2-0.1l0.3-0.1l0.1,0l0.2-0.1
		l0.1,0l0,0l0.1-0.1l0.1,0l0.1,0l0,0l0-0.1l0,0l0.1,0l0.1-0.1l0.1,0l0.3-0.1l0.1-0.1l0.2-0.1l0.1-0.1l0.1-0.1l0.1-0.1l0-0.2l0-0.1
		l0-0.2l0-0.2l0-0.1l0-0.1l0,0l0-0.1l0,0l0,0l0.1-0.1l0,0l0,0l0,0l0,0l0,0l0,0l0,0l0,0l0,0l0,0l0,0l0,0l0.1,0l0-0.1l0-0.1l0.1,0
		l-0.1,0l-0.1,0l-0.1,0h-0.1l0,0l0,0l0,0l0,0l0,0l0,0l0,0l0,0l0,0l-0.1,0l-0.1,0L35.1,13l0,0l0,0.1l0,0.1v0.1l0,0l0,0.1l0,0.1l0,0
		l0,0.1l-0.1,0l0,0l0,0l0-0.1l0-0.1v-0.1l0-0.1l0-0.1l0-0.2l0-0.1l0-0.1l0-0.1l0-0.1l0-0.1l0-0.1l0-0.1l0-0.1l0-0.1l-0.1-0.1
		l-0.1-0.1l-0.1-0.1l-0.1-0.1l-0.1-0.1l-0.1,0l-0.1-0.1l-0.1,0l-0.1,0l-0.1,0l-0.1,0l-0.1,0l-0.1,0.1l-0.1,0.1l0,0.1l-0.1,0.1l0,0
		l0,0l0,0l0,0.1l0,0l0.1,0l0.1,0l0.1-0.1l0.1,0l0,0.1l-0.1,0.1l-0.1,0l-0.1,0l-0.1-0.1l-0.1-0.1l0-0.1l0,0l0-0.1l0,0l0,0l0,0l0,0
		l0,0l0,0l-0.1,0.1l0,0l0-0.1l0-0.1l0-0.1l0.1-0.1l0.1,0l0.2,0l0.1,0l0.1,0l0.2,0l0.3,0.1l0.3,0.1l0.2,0.1l0.2,0.1l0.1,0.1l0.1,0.1
		l0.1,0.2l0.1,0.2l0.2,0.3l0.2,0.3l0.1,0.3L36,13l0.1,0.3l0.1,0.3l0.1,0.3l0.1,0.2l0,0.1l0,0.2l0,0.1l0,0.1l0,0l0,0l0-0.2l0-0.1l0,0
		l0,0l0,0l0,0l0,0l0,0.1l0,0.1l0,0.1l0,0.1l0,0l0,0L36,14.6L36,14.8l0,0.1l0.1,0l0.1-0.1l0.1-0.1l0,0l0,0.1h0l0.1-0.1l0.1,0l0,0.1
		l0,0l0,0.2l0,0.2l0,0.3l0,0.3l0,0.2l0,0.2l-0.1,0.2l-0.1,0.1l-0.1,0.2l0-0.1l0.1-0.2l0.1-0.1l0-0.1l0-0.1l0-0.1l0,0l0,0l0-0.1
		l0-0.2l0-0.2l0-0.2l0,0l0-0.1l0-0.1l0-0.1l-0.1,0l0,0.1l0,0l-0.1-0.1l-0.1,0l0,0l0,0l0.1,0.1l0,0.1l-0.1,0.1l0,0l0,0l0,0.1l0,0
		l-0.1,0l-0.1,0l0,0.1l0,0.1l0,0.1l0,0l0.1-0.1l0,0l0.1,0l0,0L36,15.9l0,0.1l0.1,0l0,0h0.1l0.1,0l0,0l0.1,0l0,0.1l0,0.1l0.1,0.2
		l0,0.1l-0.1,0.2l-0.1,0l0.1-0.1l0,0l-0.1,0.1l-0.1,0l-0.1,0l0,0l0,0.1l0,0l0,0l-0.1-0.1l-0.1-0.1l-0.1,0l-0.2,0l-0.2,0l-0.1,0
		l-0.1,0l-0.2,0l-0.2,0.1l-0.2,0.1l-0.2,0.1l-0.2,0l-0.2,0l-0.1,0l-0.1,0l0,0l-0.1,0.1l-0.1,0L33.4,17l-0.2,0.1l0,0.1l-0.1,0.1l0,0
		l0,0l0-0.1l0-0.1l0,0h0l0,0l0.1,0l0.1,0l0-0.1l-0.2-0.1l-0.1,0L33,16.9l0,0.1l0,0l0,0L33,17l-0.1,0l-0.1,0.1l-0.1,0l0,0L32.5,17
		l-0.1,0l-0.1,0l-0.1,0.1l-0.1,0.1l-0.1,0.1l-0.1,0l0,0l0-0.1l0,0l0-0.1l0,0v-0.1l0,0l0-0.1l0,0l-0.1,0l0,0l0,0.1l-0.1,0.1l-0.1,0.1
		l0,0.1l0,0l0,0.1l-0.1,0.2l-0.1,0l0.1,0.1l-0.1,0.1L31,18l-0.1,0.1l-0.1,0.1l0,0l-0.1,0h-0.1l0,0h0l-0.1,0l0,0l0.1-0.1l0-0.1l0-0.2
		l0,0l0,0.1l0,0.2l0,0.1v0l-0.1,0l-0.1,0l-0.2,0h0l0,0l0-0.1l0-0.1l0-0.1l0,0l0,0.1l0,0.1l0,0.1l-0.1,0l-0.1,0l-0.1,0l-0.2,0.1
		l-0.2,0.2l-0.1,0.1l0,0.1l-0.1,0l-0.1,0l0,0l-0.1,0l0,0.1l0,0l0-0.1l0.1-0.1l0.2-0.1l0.1,0l0-0.1l0-0.1l0-0.1l0.1-0.1l0-0.1l0,0
		l0-0.1l0-0.1l0-0.1l0-0.1l0,0l0,0l0-0.1l0,0L29.2,17l0-0.1l0-0.1l0.2-0.1l0,0l-0.1,0l-0.1,0l-0.1,0l-0.1,0l0,0l0,0l0.1,0l0.1,0
		l0.1,0l0-0.1l0-0.1l0-0.1l-0.1,0l-0.1,0l0,0.1l0,0l-0.1,0l0,0l0-0.1l0.1-0.1l0.2-0.1l0.1,0l0-0.2l0-0.1L29.4,16l0,0l0,0l0-0.1
		l0.1-0.1l0,0l0.1-0.1l0,0l0,0l0,0l0,0l-0.1,0l0,0l-0.1,0l-0.1,0l-0.1,0l0,0l0,0.1l0,0.1l0,0.1l0,0.1l-0.1,0.1L29,16.2l-0.1,0.1
		l-0.1,0l0,0l0.1-0.1L29,16l0.1-0.1l0,0l-0.1,0l0,0l0,0l0,0l0,0l0,0l-0.1,0l-0.1,0l-0.1,0l-0.1,0l0,0l0-0.1l0-0.1l0,0l0,0l0,0l0,0
		l-0.1,0l0,0l0,0.1l0,0l0,0l0,0l-0.1-0.1l0,0l0.1,0.1l0.1,0l0.1,0.1l0,0l0,0l0,0l-0.1,0l-0.1,0l0,0.1l0.1,0l0,0l0,0l0,0.1l0,0.1l0,0
		l-0.1-0.1l-0.1,0l-0.1,0l-0.1-0.1l0,0l0.1,0l0,0l-0.1-0.1l-0.1,0L28.1,16l0,0l0.1,0.2l0,0.1l0,0.1l0,0.1l0,0.1l0,0l-0.1-0.1l-0.1,0
		l0,0.1l0,0.2L28,16.9V17L28,17l0,0l0-0.1l0-0.1l-0.1,0l-0.1,0l-0.1-0.1l-0.1,0l0,0l-0.1,0.1l0.1,0.1l0.1,0l0.1,0.1l0,0.1l0,0
		l-0.1,0l-0.1,0l0,0l-0.1,0l0,0l0,0l-0.1,0l-0.1,0l-0.1,0l0,0l-0.1,0l-0.1,0l-0.1,0l0,0.1l0.1,0.1l0,0.1l0,0.1l0,0.1l0,0.1l0,0.2
		l0,0l0,0l0-0.1l0-0.1l0-0.1l0-0.1l0-0.1l-0.1-0.1l-0.1,0l-0.1,0l-0.1-0.1l0-0.1l0-0.1l0-0.1l0-0.1l0-0.1l-0.1,0.1l0,0.1l0,0.1
		l0,0.1l0.1,0.2l0.1,0.2l0,0.2l-0.1,0l0-0.1l-0.1-0.1l-0.1,0l0,0.1l0,0.2l0,0.1l0,0.1l0,0l-0.1-0.1l-0.1-0.1l-0.1-0.1l0,0l0,0.1l0,0
		l0,0.1l0,0l0,0l0,0l0,0.1l0.1,0.2l0,0.1l0,0.1l0,0.1l0,0.1l0,0.1l0,0l0,0l-0.1,0l-0.1,0l0,0.1l0,0l0,0l0,0.1l0,0v0l0,0l0,0.1l0,0
		l0-0.1l0-0.1l0,0l0,0l-0.1,0l0-0.1l0,0l0,0l-0.1,0l-0.1-0.1l0,0.1l0,0l0,0l0,0.1l0,0l0,0.1l0,0l0,0l0,0l0,0l-0.2,0l-0.1,0l0,0.1
		L25.3,19l0,0.1l0,0l0,0l0,0.1l0,0l0,0l0-0.1l0-0.1l-0.1-0.1l-0.1,0l-0.2,0l-0.1,0l0.1-0.1l0.1,0l0.1,0l0.1,0l0,0h0l0.1,0l0,0v0
		l0-0.1l0-0.2l0,0l0-0.1l0,0l-0.1,0l0-0.1l0-0.1l0-0.1l0-0.1l0-0.1l0-0.1l0-0.1l0,0l0,0l0,0.1l0,0.1l0,0.2l0,0.1l0,0.1l0.1,0.1
		l0,0.1l0,0.1l0,0.1l0,0.1l0,0.1l-0.1,0l-0.1,0l0-0.1l-0.1,0l-0.1-0.1l-0.1-0.1l-0.1,0l0,0.1l0.1,0.1l0.1,0.1l0,0.1l0,0v0l0,0.1
		l0,0.1l0,0l0,0l0,0l0,0L24.4,19l0,0l0-0.1l0-0.2l-0.1-1l-0.1-0.1l0-0.1l0,0l0-0.1l0-0.1l0,0l0,0l0,0l0,0l0,0l0,0v-0.1l0,0l0,0
		l0-0.2l0-0.1l-0.4-0.1l0,0l-0.2,0l0,0l0,0l0.1-0.1l0.1-0.1l0.1-0.1L24,16l0.1-0.2l0-0.1l0-0.1v-0.1l0-0.1l0.1-0.1l0.1-0.2l0-0.1
		l0-0.1v0l0,0l0,0l0-0.1l0,0l0-0.1l0-0.1l0,0.1l0,0.1l0,0.1l0,0.1l0,0l0,0.1l0,0.1l0,0.1l-0.1,0.1l-0.1,0.1l0,0.1l0,0.1l0,0.1
		L24,15.8l-0.1,0.1l0,0.1l-0.1,0.1l-0.1,0.1l-0.1,0.1h0l0-0.1l0-0.1l0,0l0,0l0,0.1l-0.1,0l0,0l0-0.1L23.3,16l0,0l0,0l-0.4-0.5
		l-0.2-0.1l-0.3-0.2l-0.1,0l0,0l0,0l0,0l0,0l0,0l0,0l0,0l0,0v-0.1l0,0l0-0.1l0-0.1v0l0,0l0,0l0,0v0l0,0l0,0l0,0l0,0l0-0.1l0-0.1
		l0-0.1l0,0l0-0.1l0-0.1l0-0.1l0-0.1l0-0.1l0,0l0-0.1l-0.4,0.1l0-0.7l0-0.6l0-0.5l-0.5,0l-0.7,0l-0.4,0l-0.2,0l-1.1,0l-1.3,0.1
		l0-0.2l-0.9,0l-0.6,0l-0.3,0l-0.1,0l-0.3,0l-0.8,0l-0.2,0l-0.3,0l0,0l-1,0l-0.6,0l-0.2,0l-0.4,0l-1,0h-0.1l-0.2,0l-0.4,0l-0.2,0
		l-0.5,0.1l-0.1,0.1l-0.2,0h0l0-0.1l-0.3,0l-0.4-0.1l-0.3,0l-0.5,0l0,0.1l0,0l0,0l0,0l-0.1,0.3L7,12.2L7,12l0-0.3l-0.8,0l-0.4,0
		l-0.3,0l-0.4,0l-0.3,0l-0.1,0l0,0h0l-0.8,0l-1.5-0.1l-0.1,0l-0.3,0l-0.2,0l0,0l-0.3,0l-1.3,0H0.1l0-0.2L0,10.9l0.3-1.1l0.5-1.6
		L1,7.4l0.2-0.8l0.2-0.6l0.3-0.9l0-0.1L2,4l0.1-0.5l0.2-0.6L2.6,2z"/>
	<path class="st0" d="M27.8,3L27.8,3L27.8,3L27.9,3l0,0l0,0l-0.1,0l0,0l0,0L27.8,3L27.8,3L27.8,3L27.8,3z"/>
	<path class="st0" d="M25.7,8L25.7,8L25.7,8l0-0.2l0.1-0.1l0.1,0l0,0l0,0l0,0l0,0l0,0v0.1l0,0l0,0L25.7,8L25.7,8L25.7,8z"/>
	<path class="st0" d="M26.1,8L26.1,8L26.1,8L26.1,8L26.1,8L26.1,8L26.1,8l0,0.1l0,0l0,0l0,0l0,0l0,0l0,0l0,0l0,0l0,0l0,0l0,0L26.1,8
		L26.1,8L26.1,8z"/>
	<path class="st0" d="M36.3,15.2L36.3,15.2L36.3,15.2L36.3,15.2L36.3,15.2l0.1,0.1v0l0,0h0l0,0l0,0l0,0L36.3,15.2L36.3,15.2z"/>
	<path class="st0" d="M36.3,15.8L36.3,15.8L36.3,15.8L36.3,15.8L36.3,15.8L36.3,15.8L36.3,15.8l0-0.1L36.3,15.8L36.3,15.8L36.3,15.8
		L36.3,15.8L36.3,15.8L36.3,15.8z"/>
	<path class="st0" d="M35.7,18.1L35.7,18.1L35.7,18.1l0.1-0.2l0-0.1l0-0.1l0-0.1l0-0.2l0-0.1l0-0.1l0,0l0.1-0.1l0-0.1l0-0.1l0,0l0,0
		l0,0l0,0l0-0.1l0,0l0-0.1l0,0l0.1,0l0,0l0,0l0,0.1l0,0.1l0,0.1l0,0.2l-0.1,0.2L36,18.1l-0.1,0.1L35.7,18.1L35.7,18.1L35.7,18.1
		L35.7,18.1L35.7,18.1z"/>
	<path class="st0" d="M31.7,17.2L31.7,17.2L31.7,17.2L31.7,17.2L31.7,17.2l0,0.1l0,0l0,0l0,0l0,0l0,0l0,0l0-0.1l0,0L31.7,17.2
		L31.7,17.2L31.7,17.2L31.7,17.2L31.7,17.2z"/>
	<path class="st0" d="M27.3,17.5L27.3,17.5l0.1,0.1l0.1,0.2l0,0l0,0l0,0l-0.1,0l-0.1,0l0,0L27.3,17.5z"/>
	<path class="st0" d="M28,19.1L28,19.1L28,19.1l0.2-0.1l0.1-0.1l0.1,0l0.1,0l0.1,0l0.1,0l0.1-0.2l0.1,0l0.1,0l0,0.1l-0.3,0.2l-0.1,0
		l-0.1,0l-0.1,0l-0.1,0.1l-0.1,0l0,0l-0.1,0l0,0.1v0.1l0,0.1l-0.1,0l-0.1,0l-0.1,0.1l-0.1,0.1l-0.1,0l0-0.1l0-0.1l0-0.1l0-0.1l0.1,0
		l0-0.1l0,0L28,19.1L28,19.1L28,19.1z"/>
	<path class="st0" d="M31,21L31,21l-0.1,0l-0.1,0l-0.1,0l-0.1,0l-0.1,0l-0.1,0l-0.1,0l-0.1,0l-0.3,0L29.4,21l-0.3,0l-0.7,0.1
		l-0.1,0.1l-0.1,0.1l-0.1,0.1l0,0.1l0,0.1l0,0l0,0l-0.1,0l-0.1-0.1l-0.1-0.1l-0.1,0l-0.1-0.1l-0.2-0.2L27.3,21l0-0.1l0,0l0.1,0
		l0.1,0l0.1,0L28,21l0,0.1l-0.1,0l0,0l0,0.1l0,0.1l0,0l0,0l0,0l0,0l0.1,0l0,0l0-0.1l0-0.1l0-0.1v-0.1l0-0.1l0.1-0.1l0.1-0.1l0.1-0.1
		l0-0.1l0-0.1l0.1-0.1l0.1-0.2l0.1-0.2l0.1-0.1l0.1-0.1l0.1,0l0.1-0.1l0-0.1l0.1-0.1l0.2-0.1l0,0l0.1,0.1l0,0l0-0.1l0-0.1l0.1-0.1
		l0.1,0l0,0.1l0,0.2l0,0.1l0,0l0,0l0,0.1l0,0.1v0.1l0,0l0-0.1l0.1-0.1l0.1,0l0-0.1l-0.1-0.1l0-0.1l0.2-0.1l0.1,0l0,0.1l0,0.1l0,0
		l0,0.1l0,0.1l0,0.1l0,0.1l0,0.1l0,0l-0.1,0l-0.1-0.1l-0.1,0l0,0.1l0.1,0l0,0.1l0,0.1l0.1,0l0.1,0l0-0.1l0,0l0.1,0l0.1,0.1l0.1,0
		l0,0.1l0,0l0,0l0,0.1l0.1,0.1l0,0.1l0,0.1l0,0.1l0,0l0,0l0,0L31,21L31,21z"/>
	<path class="st0" d="M27.2,19.6L27.2,19.6L27.2,19.6l0.2,0l0.1,0l0.1,0l0,0.1l0,0.1l-0.1,0l-0.1,0l0,0l-0.1,0L27.2,19.6L27.2,19.6z
		"/>
	<path class="st0" d="M26.6,20L26.6,20l0-0.1l0,0l0.1,0l0.1,0l0.1,0l0.1-0.1l0.1-0.1l0,0l0,0.1l0,0.1l0,0l0,0.1l0,0.1L27,20l-0.1,0
		l-0.1,0L26.6,20L26.6,20z"/>
	<path class="st0" d="M26.1,20.1L26.1,20.1L26.1,20.1L26.1,20.1l0.1-0.1l0.1,0l0.1-0.1l0,0l0,0l0,0l0.1,0l0,0l0,0l0,0l0,0.1l-0.1,0
		L26.1,20.1L26.1,20.1z"/>
	<path class="st0" d="M31.2,21L31.2,21L31.2,21L31.2,21L31,20.8l-0.2,0l-0.1,0l0-0.1l0-0.1l-0.1-0.1l0,0h0l0.1,0.1l0,0l0.1,0l0,0
		l0.1-0.1l0.1,0l0-0.1l0,0h0l0,0l0,0l0,0.1l0,0v0.1l0,0.1l0.1,0l0,0l0,0l0-0.2l0-0.1l0,0l0,0l0,0l0,0l0,0l0,0l-0.1,0l0,0.1v0.1
		l0,0.1l0,0l0,0l0,0l0-0.1v-0.1l0-0.1l0-0.1l0.1,0l0.1,0l0,0l0,0.1l0,0.1l0,0.1l0,0.4l0,0.1l0,0l0,0l0,0L31.2,21L31.2,21z"/>
	<path class="st0" d="M33.7,21.9L33.7,21.9L33.7,21.9L33.7,21.9l0.1,0l0,0l0,0v0l0,0l0,0l-0.1,0l-0.1-0.1l0,0l0,0l0.1,0l0.1,0l0.1,0
		l0.1,0l0.1,0l0.2,0l0.1,0l0.1,0l0.1,0l0.1,0l0.1,0l0,0l0,0l0,0l0,0l0,0l0,0l0,0l0,0l0,0l0.1-0.1l0.1-0.1l0,0l0.1,0l0.1,0l0.1,0
		l0-0.1l0,0l0,0l0,0l0,0l0.1,0h0l0,0l0,0l0-0.1l0,0l0,0l0,0l0.1,0l0.1-0.1l0-0.1l0-0.1l0-0.1l-0.1,0l-0.1,0l-0.1,0l0,0l0,0.1l0,0
		l0,0l0,0l0,0l-0.1,0.1l-0.1,0.1l-0.1,0.2l-0.1,0l0,0l0,0l0,0l0.1,0l0.1-0.1l0-0.1l0.1-0.1l0.1-0.1l0-0.1l0.1-0.1l0-0.1l0-0.1l0-0.1
		l0-0.1l0,0l-0.1-0.1l-0.1-0.1l0,0v0l0-0.1l0.1,0l0.1,0.1l0.1,0.1l0,0l0.1,0.1l0.1,0.1l0,0.1l0,0.1l0.1,0.1l0,0.1L36,21l0.1,0.1
		l0.1,0.1l0.1,0.1l0.1,0.1l0,0.1l0.1,0.2l0,0.1l0,0.1l0,0.1l-0.1,0.1l-0.1,0l-0.1,0l0,0l0,0l-0.1,0l-0.1,0l-0.1,0l-0.1,0l-0.1,0
		l-0.1,0l-0.1,0l-0.1,0l-0.1,0.1l-0.1,0l-0.1,0l-0.1,0l-0.1,0l-0.1,0l-0.1,0l-0.1,0l-0.1,0L34,22l-0.1,0L33.7,21.9L33.7,21.9
		L33.7,21.9z"/>
	<path class="st0" d="M32.7,21.1L32.7,21.1L32.7,21.1L32.7,21.1l0.2-0.1h0l0,0l0.1,0l0,0l0,0l0,0l0,0l0,0l0,0l-0.1,0L32.7,21.1
		L32.7,21.1z"/>
	<path class="st0" d="M33.1,21.4L33.1,21.4l0.1,0l0.1,0l0.2,0l0.1,0.1l0,0.1l0,0.1l0,0.1l-0.1,0l-0.1,0l-0.1-0.1l0,0L33.1,21.4
		L33.1,21.4z"/>
	<path class="st0" d="M27.5,22.4L27.5,22.4l-0.1-0.1l0,0l0,0l0,0l0.1,0l0.1,0l0,0l0,0l0,0l0,0l0,0l0.1,0.1l0,0l0,0l0,0l0,0l0,0
		L27.5,22.4L27.5,22.4z"/>
</g>
</svg>
