<!-- Generator: Adobe Illustrator 23.0.6, SVG Export Plug-In  -->
<svg version="1.1" xmlns="http://www.w3.org/2000/svg" xmlns:xlink="http://www.w3.org/1999/xlink" x="0px" y="0px" width="34.2px"
	 height="34.2px" viewBox="0 0 34.2 34.2" style="enable-background:new 0 0 34.2 34.2;" xml:space="preserve">
<style type="text/css">
	.st0{fill:#FFFFFF;}
</style>
<defs>
</defs>
<g id="tyLDAZ_2_">
	<g>
		<path class="st0" d="M21.1,14.3c0-0.1,0-0.1,0-0.1c0-0.1,0.1-0.1,0.1-0.2c1.4-1.5,2.5-3.2,3.2-5.1c0.4-1,0.6-2.1,0.6-3.1
			c0-0.9-0.2-1.7-0.6-2.5c-0.4-1-1-1.8-1.9-2.4c-1.5-1.1-3.5-1.1-5.1,0.1c-0.3,0.2-0.6,0.5-1,0.7c-0.1-0.1-0.2-0.1-0.3-0.2
			C15.6,1,14.8,0.7,14,0.6c-1-0.1-2,0-2.8,0.6c-0.8,0.6-1.4,1.4-1.7,2.4C9,4.9,9,6.3,9.4,7.7c0.6,1.8,1.7,3.3,2.8,4.8
			c0.3,0.4,0.7,0.8,1,1.3c-0.1,0-0.2,0-0.3,0c-1.9-0.5-3.8-1.1-5.8-1.2c-1.2-0.1-2.4,0-3.5,0.3c-1.7,0.5-3,1.6-3.5,3.3
			C-0.3,18,0,19.7,1.5,21c0.3,0.3,0.6,0.5,0.9,0.8c-0.1,0.5-0.2,1-0.3,1.4c-0.1,1.4,0.3,2.7,1.5,3.5c2,1.3,4.1,1.4,6.2,0.4
			c1-0.4,1.8-1.1,2.6-1.8c1.1-0.9,2-2,2.9-3.1c0.1-0.1,0.2-0.3,0.4-0.4c0,0.6,0.1,1.2,0.1,1.8c0.1,1.5,0.3,2.9,0.8,4.3
			c0.7,2.1,1.9,4,3.6,5.5c0.4,0.3,0.8,0.7,1.3,0.8c0.1-0.1,0.1-0.3,0.2-0.4c0.2-0.6,0.3-1.1,0.5-1.7c0.1-0.4,0-0.6-0.3-0.8
			c-1.1-0.8-1.8-1.9-2.4-3.1c-0.9-1.9-1.2-4-1.2-6.1c0-0.1,0-0.2,0-0.3c0.1,0.1,0.2,0.1,0.2,0.2c1.4,1.4,2.8,2.7,4.3,4
			c0.5,0.4,1,0.9,1.6,1.2c1.1,0.6,2.3,0.9,3.6,0.8c0.9-0.1,1.7-0.4,2.4-0.9c1.3-0.9,1.8-2.1,1.9-3.6c0.1-0.7,0-1.3-0.3-1.9
			c0.1-0.1,0.3-0.2,0.4-0.3c0.4-0.3,0.7-0.6,1-1c0.6-0.7,0.8-1.6,0.7-2.5c-0.1-1.5-0.7-2.7-1.7-3.7c-1.5-1.4-3.4-1.8-5.3-1.6
			c-1.4,0.1-2.8,0.6-4.1,1.1C22.4,13.8,21.7,14,21.1,14.3z"/>
		<path class="st0" d="M21.1,14.3c0.6-0.2,1.2-0.5,1.9-0.7c1.3-0.5,2.7-0.9,4.1-1.1c2-0.2,3.8,0.2,5.3,1.6c1.1,1,1.6,2.3,1.7,3.7
			c0.1,0.9-0.1,1.8-0.7,2.5c-0.3,0.4-0.7,0.7-1,1c-0.1,0.1-0.2,0.2-0.4,0.3c0.3,0.6,0.3,1.3,0.3,1.9c-0.1,1.5-0.6,2.7-1.9,3.6
			c-0.7,0.5-1.5,0.8-2.4,0.9c-1.3,0.1-2.5-0.1-3.6-0.8c-0.6-0.3-1.1-0.8-1.6-1.2c-1.5-1.2-2.9-2.6-4.3-4c0,0-0.1-0.1-0.2-0.2
			c0,0.1,0,0.2,0,0.3c0,2.1,0.3,4.1,1.2,6.1c0.6,1.2,1.3,2.3,2.4,3.1c0.3,0.2,0.4,0.4,0.3,0.8c-0.2,0.5-0.3,1.1-0.5,1.7
			c0,0.1-0.1,0.2-0.2,0.4c-0.5-0.1-0.9-0.5-1.3-0.8c-1.7-1.5-2.9-3.3-3.6-5.5c-0.5-1.4-0.7-2.8-0.8-4.3c0-0.6-0.1-1.1-0.1-1.8
			c-0.2,0.2-0.3,0.3-0.4,0.4c-0.9,1.1-1.8,2.1-2.9,3.1c-0.8,0.7-1.6,1.3-2.6,1.8c-2.1,1-4.3,0.9-6.2-0.4c-1.2-0.8-1.7-2-1.5-3.5
			c0-0.5,0.2-0.9,0.3-1.4c-0.3-0.3-0.6-0.5-0.9-0.8c-1.5-1.4-1.8-3-1.2-4.9c0.5-1.8,1.8-2.8,3.5-3.3c1.1-0.4,2.3-0.4,3.5-0.3
			c2,0.2,3.9,0.7,5.8,1.2c0.1,0,0.1,0,0.3,0c-0.4-0.5-0.7-0.9-1-1.3c-1.2-1.5-2.3-3-2.8-4.8C9,6.3,9,4.9,9.5,3.5
			c0.4-0.9,0.9-1.7,1.7-2.4C12,0.6,13,0.5,14,0.6c0.8,0.1,1.6,0.4,2.3,0.8c0.1,0.1,0.2,0.1,0.3,0.2c0.3-0.2,0.6-0.5,1-0.7
			c1.5-1.1,3.5-1.2,5.1-0.1c0.9,0.6,1.5,1.5,1.9,2.4c0.4,0.8,0.6,1.6,0.6,2.5c0,1.1-0.2,2.1-0.6,3.1c-0.8,1.9-1.8,3.6-3.2,5.1
			c-0.1,0.1-0.1,0.1-0.1,0.2C21.1,14.2,21.1,14.2,21.1,14.3z"/>
	</g>
</g>
</svg>
